M48
;Layer_Color=9474304
;FILE_FORMAT=4:4
METRIC,LZ
;TYPE=PLATED
T1F00S00C0.7112
T2F00S00C0.9000
;TYPE=NON_PLATED
T3F00S00C0.5000
%
T01
X0129794Y0016637
X0129667Y002667
X0129794Y0036703
X0129667Y004699
X0129794Y005842
X012954Y006858
X0129667Y007874
X012954Y0088773
X0130429Y0096266
X0132461Y0096647
X013462Y009652
X0128397Y009779
X0126492Y0098806
X0127127Y0102616
X0124714Y0102997
X0122555Y0103886
X0130937Y0102616
X0150622Y0100965
X0151638Y010414
X0152146Y0106807
X0154178Y0107696
X0156337
X0152273Y0111633
X0153797Y0113411
X01522095Y01153795
X0154305Y0117348
X014859Y0113792
X0148717Y011176
X0145796Y0118872
X015875Y0114681
X0159385Y0109601
X0164719Y010668
X0172466Y0108712
X0162433Y009779
X0168148Y0128016
X0164211Y0133604
X0164084Y013589
X0163576Y014097
X0145288Y0138557
X0145669Y0130556
X0145923Y0125095
X0152146Y0122174
X0153162Y0119634
X0155956Y0125349
X0135763Y0128651
X0134239Y0133985
X0129159Y013462
X0129413Y012573
X0123317Y0122428
X0083058Y0121285
X0072898
X0061214
X0051181Y0121158
T02
X0159893Y0100711
Y0103251
X0156083Y013335
Y013589
X0153289
Y013335
T03
X0168077Y0132888
Y0137338
X0171077Y0139288
Y0130938
M30
