G04*
G04 #@! TF.GenerationSoftware,Altium Limited,Altium Designer,20.1.14 (287)*
G04*
G04 Layer_Color=16711935*
%FSLAX44Y44*%
%MOMM*%
G71*
G04*
G04 #@! TF.SameCoordinates,B6D4B11B-705C-47F8-BF2D-E6778052D7CC*
G04*
G04*
G04 #@! TF.FilePolarity,Negative*
G04*
G01*
G75*
%ADD49C,0.7032*%
%ADD50R,1.7032X1.7032*%
%ADD51C,1.7032*%
%ADD52C,1.4732*%
D49*
X1710770Y1392880D02*
D03*
Y1309380D02*
D03*
X1680770Y1373380D02*
D03*
Y1328880D02*
D03*
D50*
X1560830Y1333500D02*
D03*
X1598930Y1032510D02*
D03*
X1532890Y1358900D02*
D03*
D51*
X1560830D02*
D03*
X1598930Y1007110D02*
D03*
X1532890Y1333500D02*
D03*
D52*
X1563370Y1076960D02*
D03*
X1647190Y1066800D02*
D03*
X1635760Y1409700D02*
D03*
X1456690Y1305560D02*
D03*
X1342390Y1339850D02*
D03*
X1264920Y988060D02*
D03*
X1681480Y1280160D02*
D03*
X1624330Y977900D02*
D03*
X1457960Y1188720D02*
D03*
X1593850Y1096010D02*
D03*
X1559560Y1253490D02*
D03*
X1291590Y1346200D02*
D03*
X1233170Y1224280D02*
D03*
X1294130Y1257300D02*
D03*
X1297940Y166370D02*
D03*
X1296670Y266700D02*
D03*
X1297940Y367030D02*
D03*
X1296670Y469900D02*
D03*
X1506220Y1009650D02*
D03*
X1516380Y1041400D02*
D03*
X1521460Y1068070D02*
D03*
X1541780Y1076960D02*
D03*
X1297940Y584200D02*
D03*
X1295400Y685800D02*
D03*
X1296670Y787400D02*
D03*
X1295400Y887730D02*
D03*
X1346200Y965200D02*
D03*
X1324610Y966470D02*
D03*
X1304290Y962660D02*
D03*
X1283970Y977900D02*
D03*
X830580Y1212850D02*
D03*
X728980D02*
D03*
X612140D02*
D03*
X511810Y1211580D02*
D03*
X1309370Y1026160D02*
D03*
X1271270D02*
D03*
X1247140Y1029970D02*
D03*
X1225550Y1038860D02*
D03*
X1357630Y1286510D02*
D03*
X1452880Y1385570D02*
D03*
X1522095Y1153795D02*
D03*
X1531620Y1196340D02*
D03*
X1543050Y1173480D02*
D03*
X1724660Y1087120D02*
D03*
X1642110Y1336040D02*
D03*
X1640840Y1358900D02*
D03*
X1587500Y1146810D02*
D03*
X1485900Y1137920D02*
D03*
X1537970Y1134110D02*
D03*
X1487170Y1117600D02*
D03*
X1522730Y1116330D02*
D03*
X1459230Y1250950D02*
D03*
X1521460Y1221740D02*
D03*
M02*
