G04*
G04 #@! TF.GenerationSoftware,Altium Limited,Altium Designer,20.1.14 (287)*
G04*
G04 Layer_Color=8388736*
%FSLAX44Y44*%
%MOMM*%
G71*
G04*
G04 #@! TF.SameCoordinates,B6D4B11B-705C-47F8-BF2D-E6778052D7CC*
G04*
G04*
G04 #@! TF.FilePolarity,Negative*
G04*
G01*
G75*
%ADD11C,0.2000*%
%ADD18C,0.3000*%
%ADD31R,0.5080X1.0033*%
G04:AMPARAMS|DCode=35|XSize=5.2032mm|YSize=3.2032mm|CornerRadius=0.8516mm|HoleSize=0mm|Usage=FLASHONLY|Rotation=90.000|XOffset=0mm|YOffset=0mm|HoleType=Round|Shape=RoundedRectangle|*
%AMROUNDEDRECTD35*
21,1,5.2032,1.5000,0,0,90.0*
21,1,3.5000,3.2032,0,0,90.0*
1,1,1.7032,0.7500,1.7500*
1,1,1.7032,0.7500,-1.7500*
1,1,1.7032,-0.7500,-1.7500*
1,1,1.7032,-0.7500,1.7500*
%
%ADD35ROUNDEDRECTD35*%
G04:AMPARAMS|DCode=36|XSize=5.2032mm|YSize=3.2032mm|CornerRadius=0.8516mm|HoleSize=0mm|Usage=FLASHONLY|Rotation=0.000|XOffset=0mm|YOffset=0mm|HoleType=Round|Shape=RoundedRectangle|*
%AMROUNDEDRECTD36*
21,1,5.2032,1.5000,0,0,0.0*
21,1,3.5000,3.2032,0,0,0.0*
1,1,1.7032,1.7500,-0.7500*
1,1,1.7032,-1.7500,-0.7500*
1,1,1.7032,-1.7500,0.7500*
1,1,1.7032,1.7500,0.7500*
%
%ADD36ROUNDEDRECTD36*%
%ADD37R,2.1032X1.3782*%
%ADD38R,2.1032X2.0032*%
%ADD39R,1.5532X0.6032*%
G04:AMPARAMS|DCode=40|XSize=1.6932mm|YSize=0.4832mm|CornerRadius=0.1716mm|HoleSize=0mm|Usage=FLASHONLY|Rotation=270.000|XOffset=0mm|YOffset=0mm|HoleType=Round|Shape=RoundedRectangle|*
%AMROUNDEDRECTD40*
21,1,1.6932,0.1400,0,0,270.0*
21,1,1.3500,0.4832,0,0,270.0*
1,1,0.3432,-0.0700,-0.6750*
1,1,0.3432,-0.0700,0.6750*
1,1,0.3432,0.0700,0.6750*
1,1,0.3432,0.0700,-0.6750*
%
%ADD40ROUNDEDRECTD40*%
G04:AMPARAMS|DCode=41|XSize=1.6932mm|YSize=0.4832mm|CornerRadius=0.1716mm|HoleSize=0mm|Usage=FLASHONLY|Rotation=180.000|XOffset=0mm|YOffset=0mm|HoleType=Round|Shape=RoundedRectangle|*
%AMROUNDEDRECTD41*
21,1,1.6932,0.1400,0,0,180.0*
21,1,1.3500,0.4832,0,0,180.0*
1,1,0.3432,-0.6750,0.0700*
1,1,0.3432,0.6750,0.0700*
1,1,0.3432,0.6750,-0.0700*
1,1,0.3432,-0.6750,-0.0700*
%
%ADD41ROUNDEDRECTD41*%
%ADD42R,1.6032X0.9532*%
%ADD43R,0.8382X2.8956*%
%ADD44R,1.6032X1.4032*%
%ADD45R,1.4032X1.6032*%
%ADD46R,1.7032X2.7032*%
%ADD47R,1.3032X1.6032*%
%ADD48R,1.6032X1.3032*%
%ADD49C,0.7032*%
%ADD50R,1.7032X1.7032*%
%ADD51C,1.7032*%
%ADD52C,1.4732*%
D11*
X1720270Y1395380D02*
G03*
X1717770Y1397880I-2500J0D01*
G01*
X1703770D02*
G03*
X1701270Y1395380I0J-2500D01*
G01*
X1717770Y1304380D02*
G03*
X1720270Y1306880I0J2500D01*
G01*
X1701270D02*
G03*
X1703770Y1304380I2500J0D01*
G01*
X1675520Y1373380D02*
G03*
X1679770Y1369130I4250J0D01*
G01*
X1681770D02*
G03*
X1686020Y1373380I0J4250D01*
G01*
D02*
G03*
X1681770Y1377630I-4250J0D01*
G01*
X1679770D02*
G03*
X1675520Y1373380I0J-4250D01*
G01*
Y1328880D02*
G03*
X1679770Y1324630I4250J0D01*
G01*
X1681770D02*
G03*
X1686020Y1328880I0J4250D01*
G01*
D02*
G03*
X1681770Y1333130I-4250J0D01*
G01*
X1679770D02*
G03*
X1675520Y1328880I0J-4250D01*
G01*
X1701270Y1387880D02*
X1720270D01*
Y1395380D01*
X1703770Y1397880D02*
X1717770D01*
X1701270Y1387880D02*
Y1395380D01*
Y1314380D02*
X1720270D01*
Y1306880D02*
Y1314380D01*
X1703770Y1304380D02*
X1717770D01*
X1701270Y1306880D02*
Y1314380D01*
X1679770Y1369130D02*
X1681770D01*
X1679770Y1377630D02*
X1681770D01*
X1679770Y1324630D02*
X1681770D01*
X1679770Y1333130D02*
X1681770D01*
D18*
X1707270Y1397380D02*
G03*
X1702770Y1392880I0J-4500D01*
G01*
X1718770D02*
G03*
X1714270Y1397380I-4500J0D01*
G01*
Y1388380D02*
G03*
X1718770Y1392880I0J4500D01*
G01*
X1702770D02*
G03*
X1707270Y1388380I4500J0D01*
G01*
X1702770Y1309380D02*
G03*
X1707270Y1304880I4500J0D01*
G01*
X1714270D02*
G03*
X1718770Y1309380I0J4500D01*
G01*
D02*
G03*
X1714270Y1313880I-4500J0D01*
G01*
X1707270D02*
G03*
X1702770Y1309380I0J-4500D01*
G01*
X1707270Y1397380D02*
X1714270D01*
X1707270Y1388380D02*
X1714270D01*
X1707270Y1304880D02*
X1714270D01*
X1707270Y1313880D02*
X1714270D01*
D31*
X1683360Y1155256D02*
D03*
X1673860D02*
D03*
X1664360D02*
D03*
Y1128204D02*
D03*
X1683360D02*
D03*
D35*
X309880Y1211580D02*
D03*
X410210Y1212850D02*
D03*
X612140D02*
D03*
X511810Y1211580D02*
D03*
X930910Y1212850D02*
D03*
X1031240Y1214120D02*
D03*
X829310D02*
D03*
X728980Y1212850D02*
D03*
D36*
X1296670Y468630D02*
D03*
X1297940Y368300D02*
D03*
Y166370D02*
D03*
X1296670Y266700D02*
D03*
X1295400Y685800D02*
D03*
X1296670Y585470D02*
D03*
Y787400D02*
D03*
X1295400Y887730D02*
D03*
D37*
X1710770Y1382997D02*
D03*
Y1319263D02*
D03*
D38*
Y1339630D02*
D03*
Y1362630D02*
D03*
D39*
X1684020Y1338130D02*
D03*
Y1344630D02*
D03*
Y1364130D02*
D03*
Y1357630D02*
D03*
Y1351130D02*
D03*
D40*
X1345530Y1185730D02*
D03*
X1350530D02*
D03*
X1355530D02*
D03*
X1360530D02*
D03*
X1365530D02*
D03*
X1370530D02*
D03*
X1375530D02*
D03*
X1380530D02*
D03*
X1385530D02*
D03*
X1390530D02*
D03*
X1395530D02*
D03*
X1400530D02*
D03*
X1405530D02*
D03*
X1410530D02*
D03*
X1415530D02*
D03*
X1420530D02*
D03*
Y1072330D02*
D03*
X1415530D02*
D03*
X1410530D02*
D03*
X1405530D02*
D03*
X1400530D02*
D03*
X1395530D02*
D03*
X1390530D02*
D03*
X1385530D02*
D03*
X1380530D02*
D03*
X1375530D02*
D03*
X1370530D02*
D03*
X1365530D02*
D03*
X1360530D02*
D03*
X1355530D02*
D03*
X1350530D02*
D03*
X1345530D02*
D03*
D41*
X1439730Y1166530D02*
D03*
Y1161530D02*
D03*
Y1156530D02*
D03*
Y1151530D02*
D03*
Y1146530D02*
D03*
Y1141530D02*
D03*
Y1136530D02*
D03*
Y1131530D02*
D03*
Y1126530D02*
D03*
Y1121530D02*
D03*
Y1116530D02*
D03*
Y1111530D02*
D03*
Y1106530D02*
D03*
Y1101530D02*
D03*
Y1096530D02*
D03*
Y1091530D02*
D03*
X1326330D02*
D03*
Y1096530D02*
D03*
Y1101530D02*
D03*
Y1106530D02*
D03*
Y1111530D02*
D03*
Y1116530D02*
D03*
Y1121530D02*
D03*
Y1126530D02*
D03*
Y1131530D02*
D03*
Y1136530D02*
D03*
Y1141530D02*
D03*
Y1146530D02*
D03*
Y1151530D02*
D03*
Y1156530D02*
D03*
Y1161530D02*
D03*
Y1166530D02*
D03*
D42*
X1264920Y1156970D02*
D03*
Y1171570D02*
D03*
D43*
X1377950Y1314450D02*
D03*
Y1355090D02*
D03*
X1390650Y1314450D02*
D03*
Y1355090D02*
D03*
X1403350Y1314450D02*
D03*
Y1355090D02*
D03*
X1416050Y1314450D02*
D03*
Y1355090D02*
D03*
X1428750Y1314450D02*
D03*
Y1355090D02*
D03*
D44*
X1681480Y986680D02*
D03*
Y1004680D02*
D03*
X1717040Y1187670D02*
D03*
Y1169670D02*
D03*
D45*
X1699150Y1229360D02*
D03*
X1717150D02*
D03*
D46*
X1207490Y1087120D02*
D03*
X1172490D02*
D03*
D47*
X1208920Y1141730D02*
D03*
X1193920D02*
D03*
X1207650Y1178560D02*
D03*
X1192650D02*
D03*
X1652150Y1231900D02*
D03*
X1637150D02*
D03*
X1487290Y1243330D02*
D03*
X1502290D02*
D03*
X1458080Y1003300D02*
D03*
X1473080D02*
D03*
X1411210Y1029970D02*
D03*
X1426210D02*
D03*
X1410970Y1002030D02*
D03*
X1425970D02*
D03*
X1259960Y1112520D02*
D03*
X1274960D02*
D03*
X1256150Y1073150D02*
D03*
X1271150D02*
D03*
X1458200Y1031240D02*
D03*
X1473200D02*
D03*
D48*
X1684020Y1076840D02*
D03*
Y1061840D02*
D03*
D49*
X1710770Y1392880D02*
D03*
Y1309380D02*
D03*
X1680770Y1373380D02*
D03*
Y1328880D02*
D03*
D50*
X1560830Y1333500D02*
D03*
X1598930Y1032510D02*
D03*
X1532890Y1358900D02*
D03*
D51*
X1560830D02*
D03*
X1598930Y1007110D02*
D03*
X1532890Y1333500D02*
D03*
D52*
X1563370Y1076960D02*
D03*
X1647190Y1066800D02*
D03*
X1635760Y1409700D02*
D03*
X1456690Y1305560D02*
D03*
X1342390Y1339850D02*
D03*
X1264920Y988060D02*
D03*
X1681480Y1280160D02*
D03*
X1624330Y977900D02*
D03*
X1457960Y1188720D02*
D03*
X1593850Y1096010D02*
D03*
X1559560Y1253490D02*
D03*
X1291590Y1346200D02*
D03*
X1233170Y1224280D02*
D03*
X1294130Y1257300D02*
D03*
X1297940Y166370D02*
D03*
X1296670Y266700D02*
D03*
X1297940Y367030D02*
D03*
X1296670Y469900D02*
D03*
X1506220Y1009650D02*
D03*
X1516380Y1041400D02*
D03*
X1521460Y1068070D02*
D03*
X1541780Y1076960D02*
D03*
X1297940Y584200D02*
D03*
X1295400Y685800D02*
D03*
X1296670Y787400D02*
D03*
X1295400Y887730D02*
D03*
X1346200Y965200D02*
D03*
X1324610Y966470D02*
D03*
X1304290Y962660D02*
D03*
X1283970Y977900D02*
D03*
X830580Y1212850D02*
D03*
X728980D02*
D03*
X612140D02*
D03*
X511810Y1211580D02*
D03*
X1309370Y1026160D02*
D03*
X1271270D02*
D03*
X1247140Y1029970D02*
D03*
X1225550Y1038860D02*
D03*
X1357630Y1286510D02*
D03*
X1452880Y1385570D02*
D03*
X1522095Y1153795D02*
D03*
X1531620Y1196340D02*
D03*
X1543050Y1173480D02*
D03*
X1724660Y1087120D02*
D03*
X1642110Y1336040D02*
D03*
X1640840Y1358900D02*
D03*
X1587500Y1146810D02*
D03*
X1485900Y1137920D02*
D03*
X1537970Y1134110D02*
D03*
X1487170Y1117600D02*
D03*
X1522730Y1116330D02*
D03*
X1459230Y1250950D02*
D03*
X1521460Y1221740D02*
D03*
M02*
