G04*
G04 #@! TF.GenerationSoftware,Altium Limited,Altium Designer,20.1.14 (287)*
G04*
G04 Layer_Color=128*
%FSLAX44Y44*%
%MOMM*%
G71*
G04*
G04 #@! TF.SameCoordinates,CA8EEEFF-CF9A-467A-A5D5-F1C28A067739*
G04*
G04*
G04 #@! TF.FilePolarity,Positive*
G04*
G01*
G75*
%ADD29C,0.0508*%
D29*
X1708270Y1392880D02*
X1713270D01*
X1710770Y1390380D02*
Y1395380D01*
X1708270Y1309380D02*
X1713270D01*
X1710770Y1306880D02*
Y1311880D01*
X1678270Y1373380D02*
X1683270D01*
X1680770Y1370880D02*
Y1375880D01*
X1678270Y1328880D02*
X1683270D01*
X1680770Y1326380D02*
Y1331380D01*
X1556330Y1333500D02*
X1565330D01*
X1560830Y1329000D02*
Y1338000D01*
X1556330Y1358900D02*
X1565330D01*
X1560830Y1354400D02*
Y1363400D01*
X1594430Y1032510D02*
X1603430D01*
X1598930Y1028010D02*
Y1037010D01*
X1594430Y1007110D02*
X1603430D01*
X1598930Y1002610D02*
Y1011610D01*
X1528390Y1358900D02*
X1537390D01*
X1532890Y1354400D02*
Y1363400D01*
X1528390Y1333500D02*
X1537390D01*
X1532890Y1329000D02*
Y1338000D01*
X1559814Y1076960D02*
X1566926D01*
X1563370Y1073404D02*
Y1080516D01*
X1643634Y1066800D02*
X1650746D01*
X1647190Y1063244D02*
Y1070356D01*
X1632204Y1409700D02*
X1639316D01*
X1635760Y1406144D02*
Y1413256D01*
X1453134Y1305560D02*
X1460246D01*
X1456690Y1302004D02*
Y1309116D01*
X1338834Y1339850D02*
X1345946D01*
X1342390Y1336294D02*
Y1343406D01*
X1261364Y988060D02*
X1268476D01*
X1264920Y984504D02*
Y991616D01*
X1677924Y1280160D02*
X1685036D01*
X1681480Y1276604D02*
Y1283716D01*
X1620774Y977900D02*
X1627886D01*
X1624330Y974344D02*
Y981456D01*
X1454404Y1188720D02*
X1461516D01*
X1457960Y1185164D02*
Y1192276D01*
X1590294Y1096010D02*
X1597406D01*
X1593850Y1092454D02*
Y1099566D01*
X1556004Y1253490D02*
X1563116D01*
X1559560Y1249934D02*
Y1257046D01*
X1288034Y1346200D02*
X1295146D01*
X1291590Y1342644D02*
Y1349756D01*
X1229614Y1224280D02*
X1236726D01*
X1233170Y1220724D02*
Y1227836D01*
X1290574Y1257300D02*
X1297686D01*
X1294130Y1253744D02*
Y1260856D01*
X1294384Y166370D02*
X1301496D01*
X1297940Y162814D02*
Y169926D01*
X1293114Y266700D02*
X1300226D01*
X1296670Y263144D02*
Y270256D01*
X1294384Y367030D02*
X1301496D01*
X1297940Y363474D02*
Y370586D01*
X1293114Y469900D02*
X1300226D01*
X1296670Y466344D02*
Y473456D01*
X1502664Y1009650D02*
X1509776D01*
X1506220Y1006094D02*
Y1013206D01*
X1512824Y1041400D02*
X1519936D01*
X1516380Y1037844D02*
Y1044956D01*
X1517904Y1068070D02*
X1525016D01*
X1521460Y1064514D02*
Y1071626D01*
X1538224Y1076960D02*
X1545336D01*
X1541780Y1073404D02*
Y1080516D01*
X1294384Y584200D02*
X1301496D01*
X1297940Y580644D02*
Y587756D01*
X1291844Y685800D02*
X1298956D01*
X1295400Y682244D02*
Y689356D01*
X1293114Y787400D02*
X1300226D01*
X1296670Y783844D02*
Y790956D01*
X1291844Y887730D02*
X1298956D01*
X1295400Y884174D02*
Y891286D01*
X1342644Y965200D02*
X1349756D01*
X1346200Y961644D02*
Y968756D01*
X1321054Y966470D02*
X1328166D01*
X1324610Y962914D02*
Y970026D01*
X1300734Y962660D02*
X1307846D01*
X1304290Y959104D02*
Y966216D01*
X1280414Y977900D02*
X1287526D01*
X1283970Y974344D02*
Y981456D01*
X827024Y1212850D02*
X834136D01*
X830580Y1209294D02*
Y1216406D01*
X725424Y1212850D02*
X732536D01*
X728980Y1209294D02*
Y1216406D01*
X608584Y1212850D02*
X615696D01*
X612140Y1209294D02*
Y1216406D01*
X508254Y1211580D02*
X515366D01*
X511810Y1208024D02*
Y1215136D01*
X1305814Y1026160D02*
X1312926D01*
X1309370Y1022604D02*
Y1029716D01*
X1267714Y1026160D02*
X1274826D01*
X1271270Y1022604D02*
Y1029716D01*
X1243584Y1029970D02*
X1250696D01*
X1247140Y1026414D02*
Y1033526D01*
X1221994Y1038860D02*
X1229106D01*
X1225550Y1035304D02*
Y1042416D01*
X1354074Y1286510D02*
X1361186D01*
X1357630Y1282954D02*
Y1290066D01*
X1449324Y1385570D02*
X1456436D01*
X1452880Y1382014D02*
Y1389126D01*
X1518539Y1153795D02*
X1525651D01*
X1522095Y1150239D02*
Y1157351D01*
X1528064Y1196340D02*
X1535176D01*
X1531620Y1192784D02*
Y1199896D01*
X1539494Y1173480D02*
X1546606D01*
X1543050Y1169924D02*
Y1177036D01*
X1721104Y1087120D02*
X1728216D01*
X1724660Y1083564D02*
Y1090676D01*
X1638554Y1336040D02*
X1645666D01*
X1642110Y1332484D02*
Y1339596D01*
X1637284Y1358900D02*
X1644396D01*
X1640840Y1355344D02*
Y1362456D01*
X1583944Y1146810D02*
X1591056D01*
X1587500Y1143254D02*
Y1150366D01*
X1482344Y1137920D02*
X1489456D01*
X1485900Y1134364D02*
Y1141476D01*
X1534414Y1134110D02*
X1541526D01*
X1537970Y1130554D02*
Y1137666D01*
X1483614Y1117600D02*
X1490726D01*
X1487170Y1114044D02*
Y1121156D01*
X1519174Y1116330D02*
X1526286D01*
X1522730Y1112774D02*
Y1119886D01*
X1455674Y1250950D02*
X1462786D01*
X1459230Y1247394D02*
Y1254506D01*
X1517904Y1221740D02*
X1525016D01*
X1521460Y1218184D02*
Y1225296D01*
M02*
