G04*
G04 #@! TF.GenerationSoftware,Altium Limited,Altium Designer,20.1.14 (287)*
G04*
G04 Layer_Color=8421504*
%FSLAX44Y44*%
%MOMM*%
G71*
G04*
G04 #@! TF.SameCoordinates,CA8EEEFF-CF9A-467A-A5D5-F1C28A067739*
G04*
G04*
G04 #@! TF.FilePolarity,Positive*
G04*
G01*
G75*
%ADD10C,0.2000*%
%ADD11C,0.3000*%
%ADD12C,0.1000*%
%ADD13C,0.2540*%
G04:AMPARAMS|DCode=14|XSize=5mm|YSize=3mm|CornerRadius=0.75mm|HoleSize=0mm|Usage=FLASHONLY|Rotation=90.000|XOffset=0mm|YOffset=0mm|HoleType=Round|Shape=RoundedRectangle|*
%AMROUNDEDRECTD14*
21,1,5.0000,1.5000,0,0,90.0*
21,1,3.5000,3.0000,0,0,90.0*
1,1,1.5000,0.7500,1.7500*
1,1,1.5000,0.7500,-1.7500*
1,1,1.5000,-0.7500,-1.7500*
1,1,1.5000,-0.7500,1.7500*
%
%ADD14ROUNDEDRECTD14*%
G04:AMPARAMS|DCode=15|XSize=5mm|YSize=3mm|CornerRadius=0.75mm|HoleSize=0mm|Usage=FLASHONLY|Rotation=0.000|XOffset=0mm|YOffset=0mm|HoleType=Round|Shape=RoundedRectangle|*
%AMROUNDEDRECTD15*
21,1,5.0000,1.5000,0,0,0.0*
21,1,3.5000,3.0000,0,0,0.0*
1,1,1.5000,1.7500,-0.7500*
1,1,1.5000,-1.7500,-0.7500*
1,1,1.5000,-1.7500,0.7500*
1,1,1.5000,1.7500,0.7500*
%
%ADD15ROUNDEDRECTD15*%
%ADD16R,1.9000X1.1750*%
%ADD17R,1.9000X1.8000*%
%ADD18R,1.3500X0.4000*%
G04:AMPARAMS|DCode=19|XSize=1.49mm|YSize=0.28mm|CornerRadius=0.07mm|HoleSize=0mm|Usage=FLASHONLY|Rotation=270.000|XOffset=0mm|YOffset=0mm|HoleType=Round|Shape=RoundedRectangle|*
%AMROUNDEDRECTD19*
21,1,1.4900,0.1400,0,0,270.0*
21,1,1.3500,0.2800,0,0,270.0*
1,1,0.1400,-0.0700,-0.6750*
1,1,0.1400,-0.0700,0.6750*
1,1,0.1400,0.0700,0.6750*
1,1,0.1400,0.0700,-0.6750*
%
%ADD19ROUNDEDRECTD19*%
G04:AMPARAMS|DCode=20|XSize=1.49mm|YSize=0.28mm|CornerRadius=0.07mm|HoleSize=0mm|Usage=FLASHONLY|Rotation=180.000|XOffset=0mm|YOffset=0mm|HoleType=Round|Shape=RoundedRectangle|*
%AMROUNDEDRECTD20*
21,1,1.4900,0.1400,0,0,180.0*
21,1,1.3500,0.2800,0,0,180.0*
1,1,0.1400,-0.6750,0.0700*
1,1,0.1400,0.6750,0.0700*
1,1,0.1400,0.6750,-0.0700*
1,1,0.1400,-0.6750,-0.0700*
%
%ADD20ROUNDEDRECTD20*%
%ADD21R,1.4000X0.7500*%
%ADD22R,0.7366X2.7940*%
%ADD23R,1.4000X1.2000*%
%ADD24R,1.2000X1.4000*%
%ADD25R,0.5080X1.0033*%
%ADD26R,1.5000X2.5000*%
%ADD27R,1.1000X1.4000*%
%ADD28R,1.4000X1.1000*%
D10*
X1719270Y1395380D02*
G03*
X1717770Y1396880I-1500J0D01*
G01*
X1703770D02*
G03*
X1702270Y1395380I0J-1500D01*
G01*
X1707270Y1396880D02*
G03*
X1703270Y1392880I0J-4000D01*
G01*
X1718270D02*
G03*
X1714270Y1396880I-4000J0D01*
G01*
X1717770Y1305380D02*
G03*
X1719270Y1306880I0J1500D01*
G01*
X1702270D02*
G03*
X1703770Y1305380I1500J0D01*
G01*
X1703270Y1309380D02*
G03*
X1707270Y1305380I4000J0D01*
G01*
X1714270D02*
G03*
X1718270Y1309380I0J4000D01*
G01*
X1702270Y1387880D02*
X1719270D01*
Y1395380D01*
X1703770Y1396880D02*
X1717770D01*
X1702270Y1387880D02*
Y1395380D01*
X1707270Y1396880D02*
X1714270D01*
X1702270Y1314380D02*
X1719270D01*
Y1306880D02*
Y1314380D01*
X1703770Y1305380D02*
X1717770D01*
X1702270Y1306880D02*
Y1314380D01*
X1707270Y1305380D02*
X1714270D01*
D11*
Y1388380D02*
G03*
X1718770Y1392880I0J4500D01*
G01*
X1702770D02*
G03*
X1707270Y1388380I4500J0D01*
G01*
X1718770Y1309380D02*
G03*
X1714270Y1313880I-4500J0D01*
G01*
X1707270D02*
G03*
X1702770Y1309380I0J-4500D01*
G01*
X1707270Y1388380D02*
X1714270D01*
X1707270Y1313880D02*
X1714270D01*
D12*
X1676020Y1373380D02*
G03*
X1679770Y1369630I3750J0D01*
G01*
X1681770D02*
G03*
X1685520Y1373380I0J3750D01*
G01*
D02*
G03*
X1681770Y1377130I-3750J0D01*
G01*
X1679770D02*
G03*
X1676020Y1373380I0J-3750D01*
G01*
Y1328880D02*
G03*
X1679770Y1325130I3750J0D01*
G01*
X1681770D02*
G03*
X1685520Y1328880I0J3750D01*
G01*
D02*
G03*
X1681770Y1332630I-3750J0D01*
G01*
X1679770D02*
G03*
X1676020Y1328880I0J-3750D01*
G01*
X1679770Y1369630D02*
X1681770D01*
X1679770Y1377130D02*
X1681770D01*
X1679770Y1325130D02*
X1681770D01*
X1679770Y1332630D02*
X1681770D01*
D13*
X1116330Y1402080D02*
Y1431290D01*
X1132840Y1447800D01*
X1734820D01*
X1761490Y1421130D01*
Y957580D02*
Y1421130D01*
X1727200Y923290D02*
X1761490Y957580D01*
X1146810Y923290D02*
X1727200D01*
X1116330Y953770D02*
X1146810Y923290D01*
X1116330Y953770D02*
Y1402080D01*
D14*
X309880Y1211580D02*
D03*
X410210Y1212850D02*
D03*
X612140D02*
D03*
X511810Y1211580D02*
D03*
X930910Y1212850D02*
D03*
X1031240Y1214120D02*
D03*
X829310D02*
D03*
X728980Y1212850D02*
D03*
D15*
X1296670Y468630D02*
D03*
X1297940Y368300D02*
D03*
Y166370D02*
D03*
X1296670Y266700D02*
D03*
X1295400Y685800D02*
D03*
X1296670Y585470D02*
D03*
Y787400D02*
D03*
X1295400Y887730D02*
D03*
D16*
X1710770Y1382997D02*
D03*
Y1319263D02*
D03*
D17*
Y1339630D02*
D03*
Y1362630D02*
D03*
D18*
X1684020Y1338130D02*
D03*
Y1344630D02*
D03*
Y1364130D02*
D03*
Y1357630D02*
D03*
Y1351130D02*
D03*
D19*
X1345530Y1185730D02*
D03*
X1350530D02*
D03*
X1355530D02*
D03*
X1360530D02*
D03*
X1365530D02*
D03*
X1370530D02*
D03*
X1375530D02*
D03*
X1380530D02*
D03*
X1385530D02*
D03*
X1390530D02*
D03*
X1395530D02*
D03*
X1400530D02*
D03*
X1405530D02*
D03*
X1410530D02*
D03*
X1415530D02*
D03*
X1420530D02*
D03*
Y1072330D02*
D03*
X1415530D02*
D03*
X1410530D02*
D03*
X1405530D02*
D03*
X1400530D02*
D03*
X1395530D02*
D03*
X1390530D02*
D03*
X1385530D02*
D03*
X1380530D02*
D03*
X1375530D02*
D03*
X1370530D02*
D03*
X1365530D02*
D03*
X1360530D02*
D03*
X1355530D02*
D03*
X1350530D02*
D03*
X1345530D02*
D03*
D20*
X1439730Y1166530D02*
D03*
Y1161530D02*
D03*
Y1156530D02*
D03*
Y1151530D02*
D03*
Y1146530D02*
D03*
Y1141530D02*
D03*
Y1136530D02*
D03*
Y1131530D02*
D03*
Y1126530D02*
D03*
Y1121530D02*
D03*
Y1116530D02*
D03*
Y1111530D02*
D03*
Y1106530D02*
D03*
Y1101530D02*
D03*
Y1096530D02*
D03*
Y1091530D02*
D03*
X1326330D02*
D03*
Y1096530D02*
D03*
Y1101530D02*
D03*
Y1106530D02*
D03*
Y1111530D02*
D03*
Y1116530D02*
D03*
Y1121530D02*
D03*
Y1126530D02*
D03*
Y1131530D02*
D03*
Y1136530D02*
D03*
Y1141530D02*
D03*
Y1146530D02*
D03*
Y1151530D02*
D03*
Y1156530D02*
D03*
Y1161530D02*
D03*
Y1166530D02*
D03*
D21*
X1264920Y1156970D02*
D03*
Y1171570D02*
D03*
D22*
X1377950Y1314450D02*
D03*
Y1355090D02*
D03*
X1390650Y1314450D02*
D03*
Y1355090D02*
D03*
X1403350Y1314450D02*
D03*
Y1355090D02*
D03*
X1416050Y1314450D02*
D03*
Y1355090D02*
D03*
X1428750Y1314450D02*
D03*
Y1355090D02*
D03*
D23*
X1681480Y986680D02*
D03*
Y1004680D02*
D03*
X1717040Y1187670D02*
D03*
Y1169670D02*
D03*
D24*
X1699150Y1229360D02*
D03*
X1717150D02*
D03*
D25*
X1683360Y1155256D02*
D03*
X1673860D02*
D03*
X1664360D02*
D03*
Y1128204D02*
D03*
X1683360D02*
D03*
D26*
X1207490Y1087120D02*
D03*
X1172490D02*
D03*
D27*
X1208920Y1141730D02*
D03*
X1193920D02*
D03*
X1207650Y1178560D02*
D03*
X1192650D02*
D03*
X1652150Y1231900D02*
D03*
X1637150D02*
D03*
X1487290Y1243330D02*
D03*
X1502290D02*
D03*
X1458080Y1003300D02*
D03*
X1473080D02*
D03*
X1411210Y1029970D02*
D03*
X1426210D02*
D03*
X1410970Y1002030D02*
D03*
X1425970D02*
D03*
X1259960Y1112520D02*
D03*
X1274960D02*
D03*
X1256150Y1073150D02*
D03*
X1271150D02*
D03*
X1458200Y1031240D02*
D03*
X1473200D02*
D03*
D28*
X1684020Y1076840D02*
D03*
Y1061840D02*
D03*
M02*
